<?xml version="1.0" encoding="UTF-8"?>
<!DOCTYPE svg PUBLIC "-//W3C//DTD SVG 1.1//EN" "http://www.w3.org/Graphics/SVG/1.1/DTD/svg11.dtd">
<svg xmlns="http://www.w3.org/2000/svg" version="1.1" width="2339px" height="1004px" style="shape-rendering:geometricPrecision; text-rendering:geometricPrecision; image-rendering:optimizeQuality; fill-rule:evenodd; clip-rule:evenodd" xmlns:xlink="http://www.w3.org/1999/xlink">
<g><path style="opacity:0.265" fill="#f0eff0" d="M 718.5,109.5 C 731.504,109.333 744.504,109.5 757.5,110C 769.443,111.942 776.943,118.776 780,130.5C 780.667,237.5 780.667,344.5 780,451.5C 772.354,503.819 742.854,536.653 691.5,550C 674.624,552.903 657.624,554.07 640.5,553.5C 640.5,535.167 640.5,516.833 640.5,498.5C 649.839,498.666 659.173,498.5 668.5,498C 694.525,494.642 710.358,480.142 716,454.5C 716.966,448.87 717.633,443.204 718,437.5C 718.5,328.167 718.667,218.834 718.5,109.5 Z"/></g>
<g><path style="opacity:0.16" fill="#fffedb" d="M 351.5,109.5 C 351.5,109.833 351.5,110.167 351.5,110.5C 274.833,110.5 198.167,110.5 121.5,110.5C 121.333,214.834 121.5,319.167 122,423.5C 122.232,424.737 122.732,425.737 123.5,426.5C 123.337,428.857 123.503,431.19 124,433.5C 124.383,434.056 124.883,434.389 125.5,434.5C 126.217,437.237 127.55,439.57 129.5,441.5C 134.305,446.776 140.305,449.776 147.5,450.5C 147.5,450.833 147.5,451.167 147.5,451.5C 131.942,449.776 123.109,441.11 121,425.5C 120.5,320.167 120.333,214.834 120.5,109.5C 197.5,109.5 274.5,109.5 351.5,109.5 Z"/></g>
<g><path style="opacity:0.236" fill="#fafaf9" d="M 1745.5,260.5 C 1731.24,278.771 1716.57,296.771 1701.5,314.5C 1700.83,253.5 1700.17,192.5 1699.5,131.5C 1698.05,122.539 1693.05,116.372 1684.5,113C 1671.57,111.557 1658.57,111.057 1645.5,111.5C 1645.33,218.834 1645.5,326.167 1646,433.5C 1649.31,444.317 1656.48,450.65 1667.5,452.5C 1678.32,453.495 1689.32,453.828 1700.5,453.5C 1700.5,428.833 1700.5,404.167 1700.5,379.5C 1700.83,378.5 1701.5,377.833 1702.5,377.5C 1702.5,377.833 1702.5,378.167 1702.5,378.5C 1701.51,403.759 1701.18,429.092 1701.5,454.5C 1689.5,454.667 1677.5,454.5 1665.5,454C 1654.86,452.021 1648.02,445.854 1645,435.5C 1644.5,326.834 1644.33,218.167 1644.5,109.5C 1657.88,109.097 1671.22,109.597 1684.5,111C 1692.86,114.521 1698.36,120.687 1701,129.5C 1701.33,189.833 1701.67,250.167 1702,310.5C 1715.24,295.018 1728.24,279.351 1741,263.5C 1742.13,261.859 1743.63,260.859 1745.5,260.5 Z"/></g>
<g><path style="opacity:0.636" fill="#f9d97b" d="M 351.5,110.5 C 351.5,110.833 351.5,111.167 351.5,111.5C 314.167,111.5 276.833,111.5 239.5,111.5C 200.5,111.5 161.5,111.5 122.5,111.5C 122.175,216.522 122.509,321.522 123.5,426.5C 122.732,425.737 122.232,424.737 122,423.5C 121.5,319.167 121.333,214.834 121.5,110.5C 198.167,110.5 274.833,110.5 351.5,110.5 Z"/></g>
<g><path style="opacity:0.936" fill="#f7ca34" d="M 239.5,111.5 C 239.5,111.833 239.5,112.167 239.5,112.5C 200.833,112.5 162.167,112.5 123.5,112.5C 123.333,213.501 123.5,314.501 124,415.5C 124.293,421.867 124.793,428.2 125.5,434.5C 124.883,434.389 124.383,434.056 124,433.5C 123.503,431.19 123.337,428.857 123.5,426.5C 122.509,321.522 122.175,216.522 122.5,111.5C 161.5,111.5 200.5,111.5 239.5,111.5 Z"/></g>
<g><path style="opacity:1" fill="#feca15" d="M 239.5,112.5 C 239.5,225.5 239.5,338.5 239.5,451.5C 208.833,451.5 178.167,451.5 147.5,451.5C 147.5,451.167 147.5,450.833 147.5,450.5C 141.765,447.013 135.765,444.013 129.5,441.5C 127.55,439.57 126.217,437.237 125.5,434.5C 124.793,428.2 124.293,421.867 124,415.5C 123.5,314.501 123.333,213.501 123.5,112.5C 162.167,112.5 200.833,112.5 239.5,112.5 Z"/></g>
<g><path style="opacity:1" fill="#f6971c" d="M 239.5,111.5 C 276.833,111.5 314.167,111.5 351.5,111.5C 351.5,111.833 351.5,112.167 351.5,112.5C 351.5,225.167 351.5,337.833 351.5,450.5C 351.5,451.167 351.5,451.833 351.5,452.5C 314.167,452.5 276.833,452.5 239.5,452.5C 239.5,452.167 239.5,451.833 239.5,451.5C 239.5,338.5 239.5,225.5 239.5,112.5C 239.5,112.167 239.5,111.833 239.5,111.5 Z"/></g>
<g><path style="opacity:1" fill="#ec1a2a" d="M 351.5,112.5 C 388.5,112.5 425.5,112.5 462.5,112.5C 462.5,225.167 462.5,337.833 462.5,450.5C 425.5,450.5 388.5,450.5 351.5,450.5C 351.5,337.833 351.5,225.167 351.5,112.5 Z"/></g>
<g><path style="opacity:0.82" fill="#d13a42" d="M 351.5,110.5 C 388.833,110.5 426.167,110.5 463.5,110.5C 463.5,223.5 463.5,336.5 463.5,449.5C 463.5,450.5 463.5,451.5 463.5,452.5C 426.167,452.5 388.833,452.5 351.5,452.5C 351.5,451.833 351.5,451.167 351.5,450.5C 388.5,450.5 425.5,450.5 462.5,450.5C 462.5,337.833 462.5,225.167 462.5,112.5C 425.5,112.5 388.5,112.5 351.5,112.5C 351.5,112.167 351.5,111.833 351.5,111.5C 351.5,111.167 351.5,110.833 351.5,110.5 Z"/></g>
<g><path style="opacity:0.999" fill="#221f1e" d="M 1699.5,131.5 C 1699.17,192.837 1699.5,254.17 1700.5,315.5C 1701.11,315.376 1701.44,315.043 1701.5,314.5C 1716.57,296.771 1731.24,278.771 1745.5,260.5C 1761.16,242.838 1776.49,224.838 1791.5,206.5C 1813.16,205.334 1834.83,205.167 1856.5,206C 1827.82,238.678 1799.15,271.345 1770.5,304C 1801.91,353.487 1833.58,402.82 1865.5,452C 1844.16,452.833 1822.83,452.666 1801.5,451.5C 1779.53,414.369 1757.37,377.369 1735,340.5C 1723.96,352.705 1713.12,365.038 1702.5,377.5C 1701.5,377.833 1700.83,378.5 1700.5,379.5C 1699.5,403.661 1699.17,427.994 1699.5,452.5C 1688.83,452.5 1678.17,452.5 1667.5,452.5C 1656.48,450.65 1649.31,444.317 1646,433.5C 1645.5,326.167 1645.33,218.834 1645.5,111.5C 1658.57,111.057 1671.57,111.557 1684.5,113C 1693.05,116.372 1698.05,122.539 1699.5,131.5 Z"/></g>
<g><path style="opacity:0.996" fill="#221e1d" d="M 642.5,551.5 C 642.5,534.5 642.5,517.5 642.5,500.5C 651.017,500.826 659.35,500.493 667.5,499.5C 698.783,495.049 715.949,477.049 719,445.5C 719.5,334.167 719.667,222.834 719.5,111.5C 734.225,111.068 748.892,111.568 763.5,113C 770.478,116.643 775.311,122.143 778,129.5C 778.667,237.5 778.667,345.5 778,453.5C 769.995,504.508 740.829,536.008 690.5,548C 674.649,551.059 658.649,552.225 642.5,551.5 Z"/></g>
<g><path style="opacity:0.234" fill="#efefee" d="M 520.5,109.5 C 534.837,109.333 549.171,109.5 563.5,110C 572.598,112.766 578.765,118.599 582,127.5C 582.5,218.166 582.667,308.833 582.5,399.5C 614.167,399.5 645.833,399.5 677.5,399.5C 677.667,411.505 677.5,423.505 677,435.5C 674.687,443.816 669.52,449.649 661.5,453C 621.88,454.643 582.213,454.976 542.5,454C 531.759,451.894 524.592,445.727 521,435.5C 520.5,326.834 520.333,218.167 520.5,109.5 Z"/></g>
<g><path style="opacity:1" fill="#221e1d" d="M 561.5,111.5 C 571.639,113.47 578.139,119.47 581,129.5C 581.5,220.166 581.667,310.833 581.5,401.5C 613.167,401.5 644.833,401.5 676.5,401.5C 676.667,412.172 676.5,422.839 676,433.5C 673.261,442.573 667.427,448.74 658.5,452C 618.833,452.667 579.167,452.667 539.5,452C 529.624,448.626 523.957,441.793 522.5,431.5C 522.5,324.833 522.5,218.167 522.5,111.5C 535.5,111.5 548.5,111.5 561.5,111.5 Z"/></g>
<g><path style="opacity:0.578" fill="#797978" d="M 1699.5,131.5 C 1700.17,192.5 1700.83,253.5 1701.5,314.5C 1701.44,315.043 1701.11,315.376 1700.5,315.5C 1699.5,254.17 1699.17,192.837 1699.5,131.5 Z"/></g>
<g><path style="opacity:0.306" fill="#ffcbd0" d="M 351.5,110.5 C 351.5,110.167 351.5,109.833 351.5,109.5C 389.167,109.5 426.833,109.5 464.5,109.5C 464.5,222.833 464.5,336.167 464.5,449.5C 464.167,449.5 463.833,449.5 463.5,449.5C 463.5,336.5 463.5,223.5 463.5,110.5C 426.167,110.5 388.833,110.5 351.5,110.5 Z"/></g>
<g><path style="opacity:0.175" fill="#f3f2f1" d="M 2194.5,203.5 C 2204.08,203.182 2213.58,203.515 2223,204.5C 2223.5,223.164 2223.67,241.83 2223.5,260.5C 2211.83,260.333 2200.16,260.5 2188.5,261C 2173.63,265.202 2164.13,274.702 2160,289.5C 2159.67,336.833 2159.33,384.167 2159,431.5C 2157.66,441.839 2152.16,449.006 2142.5,453C 2129.31,454.747 2116.14,454.913 2103,453.5C 2102.33,399.833 2102.33,346.167 2103,292.5C 2105.13,262.752 2117.96,238.918 2141.5,221C 2157.52,209.982 2175.18,204.149 2194.5,203.5 Z"/></g>
<g><path style="opacity:0.997" fill="#221e1d" d="M 2183.5,205.5 C 2196.5,205.5 2209.5,205.5 2222.5,205.5C 2222.5,223.167 2222.5,240.833 2222.5,258.5C 2211.16,258.333 2199.83,258.5 2188.5,259C 2172.33,263.167 2162.17,273.333 2158,289.5C 2157.67,337.167 2157.33,384.833 2157,432.5C 2154.61,442.558 2148.44,449.058 2138.5,452C 2127.17,452.5 2115.84,452.667 2104.5,452.5C 2104.33,396.832 2104.5,341.166 2105,285.5C 2113.56,241.443 2139.72,214.777 2183.5,205.5 Z"/></g>
<g><path style="opacity:0.087" fill="#f0f0ef" d="M 1255.5,201.5 C 1278.92,199.114 1301.59,201.947 1323.5,210C 1360.36,228.243 1379.53,258.077 1381,299.5C 1381.32,309.344 1381.82,319.177 1382.5,329C 1382.47,347.693 1380.64,366.193 1377,384.5C 1369.33,413.832 1351.83,434.999 1324.5,448C 1294.41,459.75 1264.08,460.417 1233.5,450C 1198.2,434.681 1178.03,407.848 1173,369.5C 1171,342.5 1171,315.5 1173,288.5C 1180.93,240.739 1208.43,211.739 1255.5,201.5 Z M 1267.5,252.5 C 1293.66,249.452 1311.16,260.119 1320,284.5C 1322.42,293.513 1323.92,302.68 1324.5,312C 1324.93,327.719 1324.43,343.552 1323,359.5C 1316.63,398.4 1294.46,412.567 1256.5,402C 1244.23,395.728 1236.4,385.895 1233,372.5C 1228.3,348.678 1227.3,324.678 1230,300.5C 1231.22,285.472 1237.06,272.639 1247.5,262C 1253.62,257.44 1260.28,254.273 1267.5,252.5 Z"/></g>
<g><path style="opacity:1" fill="#231f1e" d="M 1261.5,202.5 C 1291.57,199.74 1318.9,206.907 1343.5,224C 1364.63,241.429 1376.47,263.929 1379,291.5C 1381.99,323.369 1380.66,355.035 1375,386.5C 1366.31,415.858 1347.81,436.358 1319.5,448C 1296.31,456.007 1272.64,457.674 1248.5,453C 1201.89,439.368 1177.05,408.201 1174,359.5C 1170.99,330.277 1172.32,301.277 1178,272.5C 1191.37,231.962 1219.21,208.629 1261.5,202.5 Z M 1267.5,252.5 C 1260.28,254.273 1253.62,257.44 1247.5,262C 1237.06,272.639 1231.22,285.472 1230,300.5C 1227.3,324.678 1228.3,348.678 1233,372.5C 1236.4,385.895 1244.23,395.728 1256.5,402C 1294.46,412.567 1316.63,398.4 1323,359.5C 1324.43,343.552 1324.93,327.719 1324.5,312C 1323.92,302.68 1322.42,293.513 1320,284.5C 1311.16,260.119 1293.66,249.452 1267.5,252.5 Z"/></g>
<g><path style="opacity:0.069" fill="#f0efef" d="M 1948.5,201.5 C 1976.98,197.938 2003.64,203.105 2028.5,217C 2050.51,232.498 2065.01,253.331 2072,279.5C 2073.33,285.508 2074.67,291.508 2076,297.5C 2076.67,312.167 2076.67,326.833 2076,341.5C 2074.83,342.667 2073.67,343.833 2072.5,345C 2020.5,345.5 1968.5,345.667 1916.5,345.5C 1915.13,374.248 1927.46,394.415 1953.5,406C 1983.69,414.284 2010.35,408.118 2033.5,387.5C 2038.29,391.113 2042.95,394.946 2047.5,399C 2054.29,405.628 2060.96,412.461 2067.5,419.5C 2051.03,439.073 2030.03,450.906 2004.5,455C 1975.09,459.902 1946.43,457.236 1918.5,447C 1890.31,432.803 1872.48,410.303 1865,379.5C 1856.62,342.442 1857.95,305.775 1869,269.5C 1882.8,231.854 1909.3,209.188 1948.5,201.5 Z M 1963.5,247.5 C 1993.86,247.256 2012.36,261.923 2019,291.5C 2019.53,297.171 2020.03,302.838 2020.5,308.5C 1985.83,308.5 1951.17,308.5 1916.5,308.5C 1915.39,286.953 1923.06,269.453 1939.5,256C 1947.03,251.436 1955.03,248.603 1963.5,247.5 Z"/></g>
<g><path style="opacity:1" fill="#231f1e" d="M 1953.5,202.5 C 2026.31,200.142 2066.81,235.142 2075,307.5C 2075.67,318.167 2075.67,328.833 2075,339.5C 2073.5,341 2072,342.5 2070.5,344C 2018.5,344.5 1966.5,344.667 1914.5,344.5C 1912.74,370.986 1923.07,390.986 1945.5,404.5C 1950.66,406.83 1955.99,408.664 1961.5,410C 1989.33,414.508 2013.5,407.341 2034,388.5C 2044.5,399 2055,409.5 2065.5,420C 2045.04,441.891 2019.71,453.558 1989.5,455C 1961.68,458.408 1935.34,453.741 1910.5,441C 1887.13,425.59 1872.3,404.09 1866,376.5C 1860.14,345.817 1860.14,315.15 1866,284.5C 1874.24,249.797 1894.4,224.964 1926.5,210C 1935.39,206.698 1944.39,204.198 1953.5,202.5 Z M 1963.5,247.5 C 1955.03,248.603 1947.03,251.436 1939.5,256C 1923.06,269.453 1915.39,286.953 1916.5,308.5C 1951.17,308.5 1985.83,308.5 2020.5,308.5C 2020.03,302.838 2019.53,297.171 2019,291.5C 2012.36,261.923 1993.86,247.256 1963.5,247.5 Z"/></g>
<g><path style="opacity:0.142" fill="#dfdede" d="M 1957.5,246.5 C 2001.04,245.377 2022.38,266.711 2021.5,310.5C 1985.83,310.5 1950.17,310.5 1914.5,310.5C 1912.9,287.103 1921.23,268.27 1939.5,254C 1945.34,250.784 1951.34,248.284 1957.5,246.5 Z M 1963.5,247.5 C 1955.03,248.603 1947.03,251.436 1939.5,256C 1923.06,269.453 1915.39,286.953 1916.5,308.5C 1951.17,308.5 1985.83,308.5 2020.5,308.5C 2020.03,302.838 2019.53,297.171 2019,291.5C 2012.36,261.923 1993.86,247.256 1963.5,247.5 Z"/></g>
<g><path style="opacity:0.041" fill="#f4f4f4" d="M 909.5,109.5 C 924.217,109.087 938.884,109.587 953.5,111C 961.245,113.744 966.745,118.911 970,126.5C 971.472,168.794 971.972,211.127 971.5,253.5C 1009.17,253.5 1046.83,253.5 1084.5,253.5C 1085.46,205.231 1085.8,157.231 1085.5,109.5C 1100.22,109.087 1114.88,109.587 1129.5,111C 1137.64,113.807 1143.14,119.307 1146,127.5C 1146.5,236.499 1146.67,345.499 1146.5,454.5C 1131.78,454.913 1117.12,454.413 1102.5,453C 1095.48,450.649 1090.31,446.149 1087,439.5C 1085.83,395.528 1084.99,351.528 1084.5,307.5C 1046.83,307.5 1009.17,307.5 971.5,307.5C 971.667,356.168 971.5,404.834 971,453.5C 956.2,454.905 941.367,454.738 926.5,453C 919.066,450.565 913.899,445.732 911,438.5C 909.508,328.877 909.008,219.21 909.5,109.5 Z"/></g>
<g><path style="opacity:0.996" fill="#231f1e" d="M 1086.5,306.5 C 1047.67,305.501 1008.67,305.168 969.5,305.5C 969.5,354.5 969.5,403.5 969.5,452.5C 954.761,452.95 940.095,452.45 925.5,451C 917.682,447.181 912.848,441.014 911,432.5C 910.5,325.501 910.333,218.501 910.5,111.5C 924.171,111.333 937.837,111.5 951.5,112C 959.502,114.003 965.002,118.836 968,126.5C 969.484,169.106 969.984,211.773 969.5,254.5C 1008.5,254.5 1047.5,254.5 1086.5,254.5C 1086.5,206.833 1086.5,159.167 1086.5,111.5C 1099.84,111.333 1113.17,111.5 1126.5,112C 1135.55,114.712 1141.71,120.546 1145,129.5C 1145.5,237.166 1145.67,344.833 1145.5,452.5C 1132.16,452.667 1118.83,452.5 1105.5,452C 1095.34,449.842 1089.18,443.676 1087,433.5C 1086.5,391.168 1086.33,348.835 1086.5,306.5 Z"/></g>
<g><path style="opacity:0.362" fill="#bbb9ba" d="M 1086.5,306.5 C 1047.83,306.5 1009.17,306.5 970.5,306.5C 970.832,355.336 970.499,404.003 969.5,452.5C 969.5,403.5 969.5,354.5 969.5,305.5C 1008.67,305.168 1047.67,305.501 1086.5,306.5 Z"/></g>
<g><path style="opacity:0.427" fill="#aaa9a7" d="M 561.5,111.5 C 548.5,111.5 535.5,111.5 522.5,111.5C 522.5,218.167 522.5,324.833 522.5,431.5C 521.501,324.668 521.167,217.668 521.5,110.5C 535.01,110.171 548.344,110.504 561.5,111.5 Z"/></g>
<g><path style="opacity:0.052" fill="#eeeeed" d="M 1267.5,250.5 C 1302.15,248.644 1321.31,264.977 1325,299.5C 1325.67,318.833 1325.67,338.167 1325,357.5C 1321,395.51 1300.17,411.676 1262.5,406C 1244.08,399.719 1233.25,386.886 1230,367.5C 1227.56,346.235 1226.89,324.901 1228,303.5C 1228.64,276.13 1241.81,258.464 1267.5,250.5 Z M 1267.5,252.5 C 1260.28,254.273 1253.62,257.44 1247.5,262C 1237.06,272.639 1231.22,285.472 1230,300.5C 1227.3,324.678 1228.3,348.678 1233,372.5C 1236.4,385.895 1244.23,395.728 1256.5,402C 1294.46,412.567 1316.63,398.4 1323,359.5C 1324.43,343.552 1324.93,327.719 1324.5,312C 1323.92,302.68 1322.42,293.513 1320,284.5C 1311.16,260.119 1293.66,249.452 1267.5,252.5 Z"/></g>
<g><path style="opacity:0.047" fill="#f0efef" d="M 1702.5,378.5 C 1702.5,378.167 1702.5,377.833 1702.5,377.5C 1713.12,365.038 1723.96,352.705 1735,340.5C 1757.37,377.369 1779.53,414.369 1801.5,451.5C 1822.83,452.666 1844.16,452.833 1865.5,452C 1833.58,402.82 1801.91,353.487 1770.5,304C 1799.15,271.345 1827.82,238.678 1856.5,206C 1834.83,205.167 1813.16,205.334 1791.5,206.5C 1776.49,224.838 1761.16,242.838 1745.5,260.5C 1745.71,259.078 1746.21,257.745 1747,256.5C 1760.76,240.152 1774.43,223.819 1788,207.5C 1789.21,205.951 1790.71,204.785 1792.5,204C 1814.41,203.173 1836.24,203.34 1858,204.5C 1858.67,205.5 1858.67,206.5 1858,207.5C 1829.03,239.312 1800.53,271.645 1772.5,304.5C 1804.17,353.833 1835.83,403.167 1867.5,452.5C 1867.29,453.086 1866.96,453.586 1866.5,454C 1844.83,454.667 1823.17,454.667 1801.5,454C 1779.3,417.146 1757.13,380.313 1735,343.5C 1723.96,355.036 1713.13,366.703 1702.5,378.5 Z"/></g>
<g><path style="opacity:1" fill="#f5d053" d="M 129.5,441.5 C 135.765,444.013 141.765,447.013 147.5,450.5C 140.305,449.776 134.305,446.776 129.5,441.5 Z"/></g>
<g><path style="opacity:0.015" fill="#fffbeb" d="M 147.5,451.5 C 178.167,451.5 208.833,451.5 239.5,451.5C 239.5,451.833 239.5,452.167 239.5,452.5C 239.5,452.833 239.5,453.167 239.5,453.5C 212.61,453.386 185.777,453.719 159,454.5C 154.961,453.944 151.128,452.944 147.5,451.5 Z"/></g>
<g><path style="opacity:0.048" fill="#fffed6" d="M 239.5,453.5 C 239.5,453.167 239.5,452.833 239.5,452.5C 276.833,452.5 314.167,452.5 351.5,452.5C 351.5,452.833 351.5,453.167 351.5,453.5C 314.071,453.546 276.737,453.546 239.5,453.5 Z"/></g>
<g><path style="opacity:0.045" fill="#fee8e8" d="M 463.5,449.5 C 463.833,449.5 464.167,449.5 464.5,449.5C 465.791,450.542 465.791,451.708 464.5,453C 426.835,453.5 389.168,453.667 351.5,453.5C 351.5,453.167 351.5,452.833 351.5,452.5C 388.833,452.5 426.167,452.5 463.5,452.5C 463.5,451.5 463.5,450.5 463.5,449.5 Z"/></g>
<g><path style="opacity:0.271" fill="#a6a5a3" d="M 1700.5,379.5 C 1700.5,404.167 1700.5,428.833 1700.5,453.5C 1689.32,453.828 1678.32,453.495 1667.5,452.5C 1678.17,452.5 1688.83,452.5 1699.5,452.5C 1699.17,427.994 1699.5,403.661 1700.5,379.5 Z"/></g>
<g><path style="opacity:0.089" fill="#f0efef" d="M 1493.5,201.5 C 1521.99,197.287 1548.65,202.12 1573.5,216C 1596.81,231.122 1611.31,252.289 1617,279.5C 1621.67,312.502 1621.67,345.502 1617,378.5C 1607.25,420.089 1581.41,445.589 1539.5,455C 1512.02,460.154 1485.68,456.82 1460.5,445C 1426.96,424.444 1410.13,394.278 1410,354.5C 1408.37,327.333 1409.71,300.333 1414,273.5C 1426.18,233.474 1452.68,209.474 1493.5,201.5 Z M 1505.5,252.5 C 1534.88,249.933 1553.05,262.933 1560,291.5C 1563.33,316.5 1563.33,341.5 1560,366.5C 1550.44,400.699 1528.61,412.533 1494.5,402C 1482.63,395.798 1474.8,386.298 1471,373.5C 1466.35,349.337 1465.35,325.003 1468,300.5C 1468.91,284.854 1475.07,271.687 1486.5,261C 1492.45,257.081 1498.79,254.248 1505.5,252.5 Z"/></g>
<g><path style="opacity:0.999" fill="#231f1e" d="M 1499.5,202.5 C 1529.02,199.898 1556.02,206.731 1580.5,223C 1602.5,240.835 1614.67,264.002 1617,292.5C 1618.96,316.829 1618.96,341.162 1617,365.5C 1610.2,416.628 1581.37,446.462 1530.5,455C 1494.17,460.001 1463.01,449.835 1437,424.5C 1423.4,408.715 1415.4,390.381 1413,369.5C 1410.22,344.529 1409.88,319.529 1412,294.5C 1415.46,255.719 1434.63,227.886 1469.5,211C 1479.36,207.207 1489.36,204.373 1499.5,202.5 Z M 1505.5,252.5 C 1498.79,254.248 1492.45,257.081 1486.5,261C 1475.07,271.687 1468.91,284.854 1468,300.5C 1465.35,325.003 1466.35,349.337 1471,373.5C 1474.8,386.298 1482.63,395.798 1494.5,402C 1528.61,412.533 1550.44,400.699 1560,366.5C 1563.33,341.5 1563.33,316.5 1560,291.5C 1553.05,262.933 1534.88,249.933 1505.5,252.5 Z"/></g>
<g><path style="opacity:0.183" fill="#ececec" d="M 1505.5,250.5 C 1540.13,248.626 1559.3,264.959 1563,299.5C 1563.67,318.5 1563.67,337.5 1563,356.5C 1557.46,399.389 1533.96,414.889 1492.5,403C 1477.62,394.108 1469.12,380.941 1467,363.5C 1465.5,343.523 1465.17,323.523 1466,303.5C 1466.42,287.559 1471.92,273.726 1482.5,262C 1489.43,256.533 1497.1,252.7 1505.5,250.5 Z M 1505.5,252.5 C 1498.79,254.248 1492.45,257.081 1486.5,261C 1475.07,271.687 1468.91,284.854 1468,300.5C 1465.35,325.003 1466.35,349.337 1471,373.5C 1474.8,386.298 1482.63,395.798 1494.5,402C 1528.61,412.533 1550.44,400.699 1560,366.5C 1563.33,341.5 1563.33,316.5 1560,291.5C 1553.05,262.933 1534.88,249.933 1505.5,252.5 Z"/></g>
<g><path style="opacity:0.684" fill="#676566" d="M 667.5,499.5 C 659.35,500.493 651.017,500.826 642.5,500.5C 642.5,517.5 642.5,534.5 642.5,551.5C 641.503,534.341 641.17,517.008 641.5,499.5C 650.167,499.5 658.833,499.5 667.5,499.5 Z"/></g>
<g><path style="opacity:0.062" fill="#fefefe" d="M 126.5,595.5 C 148.167,595.5 169.833,595.5 191.5,595.5C 191.5,691.167 191.5,786.833 191.5,882.5C 169.591,882.827 147.758,882.494 126,881.5C 125.169,786.097 125.336,690.763 126.5,595.5 Z"/></g>
<g><path style="opacity:0.995" fill="#231f1e" d="M 127.5,596.5 C 148.5,596.5 169.5,596.5 190.5,596.5C 190.5,691.5 190.5,786.5 190.5,881.5C 169.5,881.5 148.5,881.5 127.5,881.5C 127.5,786.5 127.5,691.5 127.5,596.5 Z"/></g>
<g><path style="opacity:0.999" fill="#221f1e" d="M 1066.5,596.5 C 1112.5,596.5 1158.5,596.5 1204.5,596.5C 1222.06,596.871 1239.06,600.037 1255.5,606C 1279.73,618.427 1291.39,638.427 1290.5,666C 1291.22,682.982 1286.05,697.815 1275,710.5C 1268.24,716.454 1261.07,721.788 1253.5,726.5C 1287.04,738.389 1304.04,762.223 1304.5,798C 1303.54,835.955 1285.2,861.288 1249.5,874C 1237.44,877.898 1225.11,880.065 1212.5,880.5C 1163.83,880.5 1115.17,880.5 1066.5,880.5C 1066.5,785.833 1066.5,691.167 1066.5,596.5 Z M 1129.5,647.5 C 1155.54,647.046 1181.54,647.546 1207.5,649C 1224.81,655.495 1231.64,667.995 1228,686.5C 1224.43,698.406 1216.59,705.906 1204.5,709C 1179.5,709.5 1154.5,709.667 1129.5,709.5C 1129.5,688.833 1129.5,668.167 1129.5,647.5 Z M 1129.5,755.5 C 1152.84,755.333 1176.17,755.5 1199.5,756C 1225.16,756.625 1238.82,769.625 1240.5,795C 1240.08,812.743 1231.41,824.076 1214.5,829C 1209.9,830.061 1205.23,830.727 1200.5,831C 1176.84,831.5 1153.17,831.667 1129.5,831.5C 1129.5,806.167 1129.5,780.833 1129.5,755.5 Z"/></g>
<g><path style="opacity:0.999" fill="#231f1e" d="M 1606.5,596.5 C 1653.2,596.181 1699.86,596.515 1746.5,597.5C 1810.63,607.13 1847.13,644.13 1856,708.5C 1861.83,750.032 1855.17,789.365 1836,826.5C 1813.8,860.361 1782.3,878.361 1741.5,880.5C 1696.5,880.5 1651.5,880.5 1606.5,880.5C 1606.5,785.833 1606.5,691.167 1606.5,596.5 Z M 1669.5,650.5 C 1690.2,650.114 1710.86,650.614 1731.5,652C 1767.87,658.707 1788.03,680.54 1792,717.5C 1795.57,741.357 1793.57,764.69 1786,787.5C 1775.32,811.497 1756.82,824.664 1730.5,827C 1710.17,827.5 1689.84,827.667 1669.5,827.5C 1669.5,768.5 1669.5,709.5 1669.5,650.5 Z"/></g>
<g><path style="opacity:0.199" fill="#fefefd" d="M 1204.5,595.5 C 1204.5,595.833 1204.5,596.167 1204.5,596.5C 1158.5,596.5 1112.5,596.5 1066.5,596.5C 1065.5,691.332 1065.17,786.332 1065.5,881.5C 1114.5,881.5 1163.5,881.5 1212.5,881.5C 1215.17,881.5 1217.83,881.5 1220.5,881.5C 1168.67,882.499 1116.67,882.832 1064.5,882.5C 1064.5,786.833 1064.5,691.167 1064.5,595.5C 1111.17,595.5 1157.83,595.5 1204.5,595.5 Z"/></g>
<g><path style="opacity:0.217" fill="#fefefe" d="M 1746.5,596.5 C 1746.5,596.833 1746.5,597.167 1746.5,597.5C 1699.86,596.515 1653.2,596.181 1606.5,596.5C 1605.5,691.332 1605.17,786.332 1605.5,881.5C 1650.83,881.5 1696.17,881.5 1741.5,881.5C 1742.83,881.5 1744.17,881.5 1745.5,881.5C 1698.67,882.499 1651.67,882.832 1604.5,882.5C 1604.5,786.833 1604.5,691.167 1604.5,595.5C 1652,595.168 1699.34,595.501 1746.5,596.5 Z"/></g>
<g><path style="opacity:0.076" fill="#f8f8f8" d="M 1128.5,645.5 C 1152.17,645.333 1175.84,645.5 1199.5,646C 1218.56,647.728 1228.89,658.061 1230.5,677C 1230.35,695.998 1221.02,707.331 1202.5,711C 1177.84,711.5 1153.17,711.667 1128.5,711.5C 1128.5,689.5 1128.5,667.5 1128.5,645.5 Z M 1129.5,647.5 C 1129.5,668.167 1129.5,688.833 1129.5,709.5C 1154.5,709.667 1179.5,709.5 1204.5,709C 1216.59,705.906 1224.43,698.406 1228,686.5C 1231.64,667.995 1224.81,655.495 1207.5,649C 1181.54,647.546 1155.54,647.046 1129.5,647.5 Z"/></g>
<g><path style="opacity:1" fill="#221f1e" d="M 416.5,699.5 C 418.925,703.352 421.591,707.019 424.5,710.5C 430.79,722.038 434.457,734.371 435.5,747.5C 416.833,747.5 398.167,747.5 379.5,747.5C 377.325,728.158 366.659,716.658 347.5,713C 326.738,709.467 310.905,716.634 300,734.5C 286.373,763.318 286.039,792.318 299,821.5C 310.521,840.837 327.354,848.004 349.5,843C 369.109,836.635 379.776,823.135 381.5,802.5C 399.833,802.5 418.167,802.5 436.5,802.5C 433.598,825.63 424.265,845.63 408.5,862.5C 380.393,884.087 348.727,891.587 313.5,885C 266.567,873.396 240.067,843.563 234,795.5C 229.907,762.874 237.24,733.207 256,706.5C 280.372,678.477 311.206,666.311 348.5,670C 374.887,671.616 397.553,681.45 416.5,699.5 Z"/></g>
<g><path style="opacity:0.675" fill="#3e3c3c" d="M 1606.5,596.5 C 1606.5,691.167 1606.5,785.833 1606.5,880.5C 1651.5,880.5 1696.5,880.5 1741.5,880.5C 1741.5,880.833 1741.5,881.167 1741.5,881.5C 1696.17,881.5 1650.83,881.5 1605.5,881.5C 1605.17,786.332 1605.5,691.332 1606.5,596.5 Z"/></g>
<g><path style="opacity:0.141" fill="#eeeded" d="M 1746.5,597.5 C 1746.5,597.167 1746.5,596.833 1746.5,596.5C 1798.49,601.991 1833.32,629.324 1851,678.5C 1864.92,726.65 1861.92,773.65 1842,819.5C 1821.24,857.646 1789.07,878.313 1745.5,881.5C 1744.17,881.5 1742.83,881.5 1741.5,881.5C 1741.5,881.167 1741.5,880.833 1741.5,880.5C 1782.3,878.361 1813.8,860.361 1836,826.5C 1855.17,789.365 1861.83,750.032 1856,708.5C 1847.13,644.13 1810.63,607.13 1746.5,597.5 Z"/></g>
<g><path style="opacity:0.08" fill="#e8e8e8" d="M 416.5,699.5 C 418.853,701.101 421.02,703.101 423,705.5C 424.009,707.025 424.509,708.692 424.5,710.5C 421.591,707.019 418.925,703.352 416.5,699.5 Z"/></g>
<g><path style="opacity:0.065" fill="#eeeeee" d="M 416.5,699.5 C 397.553,681.45 374.887,671.616 348.5,670C 311.206,666.311 280.372,678.477 256,706.5C 237.24,733.207 229.907,762.874 234,795.5C 240.067,843.563 266.567,873.396 313.5,885C 348.727,891.587 380.393,884.087 408.5,862.5C 407.797,864.716 406.464,866.549 404.5,868C 382.31,883.183 357.643,890.183 330.5,889C 282.646,885.193 251.146,860.693 236,815.5C 227.736,781.137 231.403,748.137 247,716.5C 264.362,688.508 289.529,672.674 322.5,669C 349.358,665.706 374.691,670.372 398.5,683C 402.783,685.615 406.783,688.615 410.5,692C 413.118,694.106 415.118,696.606 416.5,699.5 Z"/></g>
<g><path style="opacity:0.047" fill="#eeeded" d="M 1204.5,596.5 C 1204.5,596.167 1204.5,595.833 1204.5,595.5C 1226.55,594.679 1247.21,599.513 1266.5,610C 1284.71,624.272 1293.38,643.105 1292.5,666.5C 1292.7,693.433 1281.04,713.267 1257.5,726C 1284.72,736.223 1300.55,755.723 1305,784.5C 1310.21,825.588 1294.38,855.088 1257.5,873C 1245.55,877.688 1233.22,880.521 1220.5,881.5C 1217.83,881.5 1215.17,881.5 1212.5,881.5C 1212.5,881.167 1212.5,880.833 1212.5,880.5C 1225.11,880.065 1237.44,877.898 1249.5,874C 1285.2,861.288 1303.54,835.955 1304.5,798C 1304.04,762.223 1287.04,738.389 1253.5,726.5C 1261.07,721.788 1268.24,716.454 1275,710.5C 1286.05,697.815 1291.22,682.982 1290.5,666C 1291.39,638.427 1279.73,618.427 1255.5,606C 1239.06,600.037 1222.06,596.871 1204.5,596.5 Z"/></g>
<g><path style="opacity:0.379" fill="#dbd9da" d="M 424.5,710.5 C 426.074,710.937 427.241,711.937 428,713.5C 433.44,724.534 436.273,736.2 436.5,748.5C 417.326,748.83 398.326,748.497 379.5,747.5C 398.167,747.5 416.833,747.5 435.5,747.5C 434.457,734.371 430.79,722.038 424.5,710.5 Z"/></g>
<g><path style="opacity:0.156" fill="#f8f8f6" d="M 1128.5,754.5 C 1154.84,754.333 1181.17,754.5 1207.5,755C 1234.38,760.59 1245.55,777.09 1241,804.5C 1236.47,821.543 1225.3,830.709 1207.5,832C 1181.17,832.5 1154.84,832.667 1128.5,832.5C 1128.5,806.5 1128.5,780.5 1128.5,754.5 Z M 1129.5,755.5 C 1129.5,780.833 1129.5,806.167 1129.5,831.5C 1153.17,831.667 1176.84,831.5 1200.5,831C 1205.23,830.727 1209.9,830.061 1214.5,829C 1231.41,824.076 1240.08,812.743 1240.5,795C 1238.82,769.625 1225.16,756.625 1199.5,756C 1176.17,755.5 1152.84,755.333 1129.5,755.5 Z"/></g>
<g><path style="opacity:0.098" fill="#e7e6e6" d="M 818.5,668.5 C 840.969,665.797 861.969,669.964 881.5,681C 894.665,692.158 902.498,706.325 905,723.5C 905.972,730.135 906.639,736.801 907,743.5C 907.5,789.832 907.667,836.165 907.5,882.5C 887.5,882.5 867.5,882.5 847.5,882.5C 847.667,838.832 847.5,795.165 847,751.5C 843.036,721.253 826.203,710.087 796.5,718C 783.384,723.027 775.55,732.527 773,746.5C 772.519,750.531 771.853,754.531 771,758.5C 770.5,799.832 770.333,841.165 770.5,882.5C 750.5,882.5 730.5,882.5 710.5,882.5C 710.5,812.833 710.5,743.167 710.5,673.5C 729.5,673.5 748.5,673.5 767.5,673.5C 767.334,682.173 767.5,690.84 768,699.5C 780.842,682.662 797.675,672.329 818.5,668.5 Z"/></g>
<g><path style="opacity:0.541" fill="#838281" d="M 712.5,675.5 C 730.326,674.503 748.326,674.17 766.5,674.5C 766.173,684.348 766.506,694.014 767.5,703.5C 767.44,704.043 767.107,704.376 766.5,704.5C 765.502,694.856 765.168,685.19 765.5,675.5C 747.833,675.5 730.167,675.5 712.5,675.5 Z"/></g>
<g><path style="opacity:0.997" fill="#221e1d" d="M 712.5,675.5 C 730.167,675.5 747.833,675.5 765.5,675.5C 765.168,685.19 765.502,694.856 766.5,704.5C 767.107,704.376 767.44,704.043 767.5,703.5C 785.478,678.018 810.145,666.851 841.5,670C 880.146,672.979 901.313,693.812 905,732.5C 905.5,782.166 905.667,831.832 905.5,881.5C 886.833,881.5 868.167,881.5 849.5,881.5C 849.667,838.165 849.5,794.832 849,751.5C 846.032,721.871 829.866,709.705 800.5,715C 785.027,718.473 775.527,727.973 772,743.5C 770.355,749.392 769.355,755.392 769,761.5C 768.5,801.499 768.333,841.499 768.5,881.5C 749.833,881.5 731.167,881.5 712.5,881.5C 712.5,812.833 712.5,744.167 712.5,675.5 Z"/></g>
<g><path style="opacity:0.081" fill="#f2f1f1" d="M 1668.5,649.5 C 1690.86,649.104 1713.2,649.604 1735.5,651C 1760.88,655.585 1778.38,669.752 1788,693.5C 1797.97,724.509 1797.97,755.509 1788,786.5C 1778.41,810.427 1760.91,824.26 1735.5,828C 1713.17,828.5 1690.84,828.667 1668.5,828.5C 1668.5,768.833 1668.5,709.167 1668.5,649.5 Z M 1669.5,650.5 C 1669.5,709.5 1669.5,768.5 1669.5,827.5C 1689.84,827.667 1710.17,827.5 1730.5,827C 1756.82,824.664 1775.32,811.497 1786,787.5C 1793.57,764.69 1795.57,741.357 1792,717.5C 1788.03,680.54 1767.87,658.707 1731.5,652C 1710.86,650.614 1690.2,650.114 1669.5,650.5 Z"/></g>
<g><path style="opacity:0.09" fill="#ebebeb" d="M 379.5,747.5 C 398.326,748.497 417.326,748.83 436.5,748.5C 417.341,749.497 398.007,749.83 378.5,749.5C 375.018,726.689 361.684,714.689 338.5,713.5C 319.011,714.825 305.511,724.492 298,742.5C 290.559,763.842 289.559,785.509 295,807.5C 306.714,841.188 328.88,850.688 361.5,836C 372.676,826.819 379.009,814.985 380.5,800.5C 399.5,800.5 418.5,800.5 437.5,800.5C 436.252,824.487 427.252,844.987 410.5,862C 409.906,862.464 409.239,862.631 408.5,862.5C 424.265,845.63 433.598,825.63 436.5,802.5C 418.167,802.5 399.833,802.5 381.5,802.5C 379.776,823.135 369.109,836.635 349.5,843C 327.354,848.004 310.521,840.837 299,821.5C 286.039,792.318 286.373,763.318 300,734.5C 310.905,716.634 326.738,709.467 347.5,713C 366.659,716.658 377.325,728.158 379.5,747.5 Z"/></g>
<g><path style="opacity:0.083" fill="#eeeded" d="M 633.5,687.5 C 636.14,687.954 638.473,689.121 640.5,691C 665.738,714.505 678.071,743.671 677.5,778.5C 674.488,848.179 638.155,885.179 568.5,889.5C 532.77,889.38 503.604,875.714 481,848.5C 466.912,827.56 460.078,804.393 460.5,779C 459.814,747.04 470.147,719.373 491.5,696C 513.475,676.339 539.308,667.173 569,668.5C 590.977,667.828 611.477,672.995 630.5,684C 632.063,684.759 633.063,685.926 633.5,687.5 Z M 563.5,713.5 C 594.166,713.659 611.666,728.992 616,759.5C 616.667,772.167 616.667,784.833 616,797.5C 609.856,832.312 589.356,846.812 554.5,841C 541.16,836.993 531.994,828.493 527,815.5C 519.535,793.833 518.535,771.833 524,749.5C 529.264,728.648 542.431,716.648 563.5,713.5 Z"/></g>
<g><path style="opacity:1" fill="#231f1e" d="M 633.5,687.5 C 661.678,710.201 675.678,739.868 675.5,776.5C 676.836,811.308 664.836,840.475 639.5,864C 613.882,882.616 585.216,889.949 553.5,886C 499.979,878.19 469.812,847.357 463,793.5C 459.521,762.661 466.188,734.328 483,708.5C 508.024,679.252 539.857,666.419 578.5,670C 598.286,671.541 616.619,677.374 633.5,687.5 Z M 563.5,713.5 C 542.431,716.648 529.264,728.648 524,749.5C 518.535,771.833 519.535,793.833 527,815.5C 531.994,828.493 541.16,836.993 554.5,841C 589.356,846.812 609.856,832.312 616,797.5C 616.667,784.833 616.667,772.167 616,759.5C 611.666,728.992 594.166,713.659 563.5,713.5 Z"/></g>
<g><path style="opacity:0.029" fill="#ebeaea" d="M 557.5,712.5 C 592.686,709.515 612.853,725.515 618,760.5C 618.667,771.167 618.667,781.833 618,792.5C 614.114,831.409 592.947,848.242 554.5,843C 535.324,835.807 524.157,821.973 521,801.5C 516.417,779.965 518.084,758.965 526,738.5C 532.492,724.83 542.992,716.163 557.5,712.5 Z M 563.5,713.5 C 542.431,716.648 529.264,728.648 524,749.5C 518.535,771.833 519.535,793.833 527,815.5C 531.994,828.493 541.16,836.993 554.5,841C 589.356,846.812 609.856,832.312 616,797.5C 616.667,784.833 616.667,772.167 616,759.5C 611.666,728.992 594.166,713.659 563.5,713.5 Z"/></g>
<g><path style="opacity:0.094" fill="#eeeeed" d="M 1426.5,588.5 C 1454.77,585.904 1482.1,589.737 1508.5,600C 1543.4,616.286 1560.74,643.786 1560.5,682.5C 1539.17,682.5 1517.83,682.5 1496.5,682.5C 1496.25,660.136 1485.25,646.636 1463.5,642C 1447.01,637.803 1431.01,639.136 1415.5,646C 1399.82,656.566 1396.65,670.066 1406,686.5C 1415.79,692.471 1426.29,696.971 1437.5,700C 1458.19,705.342 1478.85,710.675 1499.5,716C 1559.1,732.702 1580.6,770.869 1564,830.5C 1552.85,855.312 1534.35,872.145 1508.5,881C 1470.18,892.333 1431.85,892.333 1393.5,881C 1349.57,864.313 1327.57,832.479 1327.5,785.5C 1348.5,785.5 1369.5,785.5 1390.5,785.5C 1391.42,813.165 1405.42,829.998 1432.5,836C 1450.85,838.989 1468.85,837.655 1486.5,832C 1505.54,822.891 1510.7,808.725 1502,789.5C 1493.48,780.656 1483.32,774.49 1471.5,771C 1447.46,764.99 1423.46,758.657 1399.5,752C 1380.65,745.998 1364.48,735.831 1351,721.5C 1338.39,703.45 1334.05,683.45 1338,661.5C 1341.32,641.015 1351.15,624.515 1367.5,612C 1385.3,599.467 1404.97,591.633 1426.5,588.5 Z"/></g>
<g><path style="opacity:0.6" fill="#5e5c5c" d="M 1389.5,787.5 C 1369.5,787.5 1349.5,787.5 1329.5,787.5C 1329.5,791.5 1329.5,795.5 1329.5,799.5C 1328.52,795.366 1328.18,791.032 1328.5,786.5C 1349.01,786.17 1369.34,786.503 1389.5,787.5 Z"/></g>
<g><path style="opacity:1" fill="#231f1e" d="M 1329.5,799.5 C 1329.5,795.5 1329.5,791.5 1329.5,787.5C 1349.5,787.5 1369.5,787.5 1389.5,787.5C 1389.83,812.33 1401.83,828.497 1425.5,836C 1448.95,842.28 1471.62,840.28 1493.5,830C 1505.43,821.547 1509.93,810.047 1507,795.5C 1502.06,785.262 1494.22,778.095 1483.5,774C 1452.8,765.126 1422.13,756.126 1391.5,747C 1345.95,728.404 1329.78,695.237 1343,647.5C 1355.21,621.628 1375.04,604.461 1402.5,596C 1438.46,586.061 1473.8,588.061 1508.5,602C 1541.99,617.793 1558.66,644.293 1558.5,681.5C 1538.5,681.5 1518.5,681.5 1498.5,681.5C 1495.89,655.059 1481.22,640.892 1454.5,639C 1440.17,636.878 1426.51,638.878 1413.5,645C 1398.5,655.502 1395,669.002 1403,685.5C 1407.06,689.786 1411.9,692.952 1417.5,695C 1445.81,704.245 1474.48,712.245 1503.5,719C 1559.31,737.117 1578.81,774.284 1562,830.5C 1549.74,856.756 1529.57,873.589 1501.5,881C 1476.86,887.164 1451.86,889.164 1426.5,887C 1395.33,883.501 1369.17,870.334 1348,847.5C 1337.42,833.262 1331.25,817.262 1329.5,799.5 Z"/></g>
<g><path style="opacity:0.775" fill="#4c4b4b" d="M 1066.5,596.5 C 1066.5,691.167 1066.5,785.833 1066.5,880.5C 1115.17,880.5 1163.83,880.5 1212.5,880.5C 1212.5,880.833 1212.5,881.167 1212.5,881.5C 1163.5,881.5 1114.5,881.5 1065.5,881.5C 1065.17,786.332 1065.5,691.332 1066.5,596.5 Z"/></g>
</svg>
